<svg width="111" height="186" viewBox="0 0 111 186" fill="none" xmlns="http://www.w3.org/2000/svg">
<mask id="path-1-outside-1_206_2" maskUnits="userSpaceOnUse" x="-7" y="-7" width="122" height="196" fill="black">
<rect fill="white" x="-7" y="-7" width="122" height="196"/>
<path d="M75.4049 1.702C82.8809 0.366984 91.4249 4.372 96.4979 9.44499C110.916 23.863 106.911 51.898 98.9009 68.185C94.3619 77.797 88.7549 86.074 81.0119 93.283C77.8079 96.22 74.3369 98.89 70.5989 101.026C72.2009 101.293 73.8029 101.827 75.1379 102.094C83.6819 104.764 90.0899 110.905 93.5609 119.182C99.4349 133.6 94.3619 150.688 85.5509 162.703C76.4729 175.786 59.6519 185.665 43.8989 178.456C39.8939 176.587 37.4909 174.451 36.1559 170.179C35.3549 167.776 35.0879 165.373 34.8209 162.703C34.0199 155.227 35.6219 148.552 38.2919 141.61C43.0979 129.328 51.3749 117.847 65.5259 117.046C70.0649 116.779 69.7979 122.386 65.5259 122.653C58.5839 122.92 53.2439 128.26 49.7729 133.867C46.3019 139.741 42.8309 147.484 43.0979 154.159C43.0979 159.766 45.7679 163.771 51.3749 163.771C55.1129 163.771 58.3169 159.766 60.7199 157.096C67.6619 148.285 73.0019 137.338 71.9339 125.857C71.6669 120.784 70.0649 115.711 67.6619 111.172C66.8609 109.57 65.5259 107.167 64.1909 106.099C62.5889 105.298 60.4529 105.298 58.3169 105.298C56.9819 105.565 55.6469 106.099 54.3119 106.366C51.9089 107.167 48.7049 107.167 46.8359 105.031C45.2339 103.162 45.5009 100.759 47.3699 99.157C50.8409 96.487 52.1759 93.016 55.1129 89.812C58.0499 86.608 61.2539 83.671 63.9239 80.467C69.7979 73.792 74.6039 66.316 78.3419 58.306C81.5459 50.83 83.6819 43.354 85.0169 35.344C86.3519 28.135 89.0219 17.989 85.2839 10.78C80.2109 0.900993 67.3949 12.649 63.3899 17.455C58.0499 23.863 54.0449 31.072 50.8409 38.815C44.4329 54.301 40.9619 70.855 37.4909 87.142C34.0199 104.764 31.6169 122.653 30.0149 140.542C30.2819 143.746 30.8159 146.95 31.3499 150.154C31.6169 154.426 24.4079 154.426 22.5389 151.756C20.4029 149.086 19.3349 145.615 17.1989 142.678C15.3299 140.542 13.7279 138.139 12.3929 135.736C8.92188 130.663 7.05287 123.988 5.71787 118.114C2.51387 106.366 1.17887 94.084 1.17887 82.069C0.911875 57.238 5.71787 32.674 15.0629 9.71199C17.9999 3.037 26.2769 0.633996 32.9519 2.23599C38.8259 3.57099 45.7679 9.44499 42.8309 16.12C33.4859 36.946 28.1459 59.374 27.3449 82.336C27.0779 89.812 27.3449 97.021 27.6119 104.497C29.4809 92.749 31.6169 81.001 34.2869 69.52C38.5589 51.097 43.6319 32.407 55.1129 17.188C60.1859 10.246 66.5939 3.30399 75.4049 1.702Z"/>
</mask>
<path d="M75.4049 1.702C82.8809 0.366984 91.4249 4.372 96.4979 9.44499C110.916 23.863 106.911 51.898 98.9009 68.185C94.3619 77.797 88.7549 86.074 81.0119 93.283C77.8079 96.22 74.3369 98.89 70.5989 101.026C72.2009 101.293 73.8029 101.827 75.1379 102.094C83.6819 104.764 90.0899 110.905 93.5609 119.182C99.4349 133.6 94.3619 150.688 85.5509 162.703C76.4729 175.786 59.6519 185.665 43.8989 178.456C39.8939 176.587 37.4909 174.451 36.1559 170.179C35.3549 167.776 35.0879 165.373 34.8209 162.703C34.0199 155.227 35.6219 148.552 38.2919 141.61C43.0979 129.328 51.3749 117.847 65.5259 117.046C70.0649 116.779 69.7979 122.386 65.5259 122.653C58.5839 122.92 53.2439 128.26 49.7729 133.867C46.3019 139.741 42.8309 147.484 43.0979 154.159C43.0979 159.766 45.7679 163.771 51.3749 163.771C55.1129 163.771 58.3169 159.766 60.7199 157.096C67.6619 148.285 73.0019 137.338 71.9339 125.857C71.6669 120.784 70.0649 115.711 67.6619 111.172C66.8609 109.57 65.5259 107.167 64.1909 106.099C62.5889 105.298 60.4529 105.298 58.3169 105.298C56.9819 105.565 55.6469 106.099 54.3119 106.366C51.9089 107.167 48.7049 107.167 46.8359 105.031C45.2339 103.162 45.5009 100.759 47.3699 99.157C50.8409 96.487 52.1759 93.016 55.1129 89.812C58.0499 86.608 61.2539 83.671 63.9239 80.467C69.7979 73.792 74.6039 66.316 78.3419 58.306C81.5459 50.83 83.6819 43.354 85.0169 35.344C86.3519 28.135 89.0219 17.989 85.2839 10.78C80.2109 0.900993 67.3949 12.649 63.3899 17.455C58.0499 23.863 54.0449 31.072 50.8409 38.815C44.4329 54.301 40.9619 70.855 37.4909 87.142C34.0199 104.764 31.6169 122.653 30.0149 140.542C30.2819 143.746 30.8159 146.95 31.3499 150.154C31.6169 154.426 24.4079 154.426 22.5389 151.756C20.4029 149.086 19.3349 145.615 17.1989 142.678C15.3299 140.542 13.7279 138.139 12.3929 135.736C8.92188 130.663 7.05287 123.988 5.71787 118.114C2.51387 106.366 1.17887 94.084 1.17887 82.069C0.911875 57.238 5.71787 32.674 15.0629 9.71199C17.9999 3.037 26.2769 0.633996 32.9519 2.23599C38.8259 3.57099 45.7679 9.44499 42.8309 16.12C33.4859 36.946 28.1459 59.374 27.3449 82.336C27.0779 89.812 27.3449 97.021 27.6119 104.497C29.4809 92.749 31.6169 81.001 34.2869 69.52C38.5589 51.097 43.6319 32.407 55.1129 17.188C60.1859 10.246 66.5939 3.30399 75.4049 1.702Z" fill="#EAE7B1"/>
<path d="M75.4049 1.702L73.9985 -6.17342L73.9862 -6.17121L73.9738 -6.16896L75.4049 1.702ZM98.9009 68.185L91.7221 64.6544L91.694 64.7115L91.6669 64.7689L98.9009 68.185ZM81.0119 93.283L86.4177 99.1802L86.4405 99.1593L86.4632 99.1381L81.0119 93.283ZM70.5989 101.026L66.6298 94.08L47.1272 105.224L69.2837 108.917L70.5989 101.026ZM75.1379 102.094L77.5241 94.4582L77.1209 94.3322L76.7068 94.2493L75.1379 102.094ZM93.5609 119.182L100.97 116.164L100.954 116.126L100.938 116.088L93.5609 119.182ZM85.5509 162.703L79.0996 157.972L79.0378 158.056L78.9782 158.142L85.5509 162.703ZM43.8989 178.456L40.5158 185.705L40.5428 185.718L40.5699 185.73L43.8989 178.456ZM36.1559 170.179L43.7917 167.793L43.7692 167.721L43.7453 167.649L36.1559 170.179ZM34.8209 162.703L42.7812 161.907L42.7784 161.879L42.7753 161.851L34.8209 162.703ZM38.2919 141.61L30.8419 138.695L30.8335 138.716L30.8251 138.738L38.2919 141.61ZM65.5259 117.046L65.978 125.033L65.9868 125.033L65.9956 125.032L65.5259 117.046ZM65.5259 122.653L65.8333 130.647L65.9292 130.643L66.0249 130.637L65.5259 122.653ZM49.7729 133.867L42.9708 129.656L42.9274 129.726L42.8855 129.797L49.7729 133.867ZM43.0979 154.159H51.0979V153.999L51.0915 153.839L43.0979 154.159ZM60.7199 157.096L66.6662 162.448L66.8416 162.253L67.0038 162.047L60.7199 157.096ZM71.9339 125.857L63.9449 126.277L63.9534 126.438L63.9683 126.598L71.9339 125.857ZM67.6619 111.172L60.5065 114.75L60.5481 114.833L60.5916 114.915L67.6619 111.172ZM64.1909 106.099L69.1884 99.852L68.5266 99.3226L67.7686 98.9436L64.1909 106.099ZM58.3169 105.298V97.298H57.5247L56.7479 97.4534L58.3169 105.298ZM54.3119 106.366L52.743 98.5213L52.2546 98.619L51.7821 98.7765L54.3119 106.366ZM46.8359 105.031L40.7618 110.237L40.7884 110.268L40.8153 110.299L46.8359 105.031ZM47.3699 99.157L42.4922 92.816L42.3243 92.9451L42.1635 93.0829L47.3699 99.157ZM63.9239 80.467L57.9182 75.182L57.847 75.2628L57.7781 75.3455L63.9239 80.467ZM78.3419 58.306L85.5913 61.6891L85.645 61.574L85.695 61.4573L78.3419 58.306ZM85.0169 35.344L77.1506 33.8873L77.1375 33.9579L77.1257 34.0288L85.0169 35.344ZM85.2839 10.78L78.1673 14.4344L78.1746 14.4485L78.1818 14.4625L85.2839 10.78ZM63.3899 17.455L57.2441 12.3335L57.2441 12.3335L63.3899 17.455ZM50.8409 38.815L58.233 41.8738L58.233 41.8738L50.8409 38.815ZM37.4909 87.142L29.6666 85.4745L29.6537 85.5351L29.6417 85.5959L37.4909 87.142ZM30.0149 140.542L22.0468 139.828L21.9851 140.517L22.0425 141.206L30.0149 140.542ZM31.3499 150.154L39.3343 149.655L39.3086 149.244L39.241 148.839L31.3499 150.154ZM22.5389 151.756L29.0927 147.168L28.9458 146.958L28.7858 146.758L22.5389 151.756ZM17.1989 142.678L23.6688 137.973L23.4568 137.681L23.2195 137.41L17.1989 142.678ZM12.3929 135.736L19.3861 131.851L19.2054 131.526L18.9953 131.219L12.3929 135.736ZM5.71787 118.114L13.5189 116.341L13.481 116.174L13.436 116.009L5.71787 118.114ZM1.17887 82.069H9.17887V82.026L9.17841 81.983L1.17887 82.069ZM15.0629 9.71199L7.74036 6.49008L7.69525 6.5926L7.65302 6.69635L15.0629 9.71199ZM32.9519 2.23599L31.0849 10.0151L31.1318 10.0264L31.1789 10.0371L32.9519 2.23599ZM42.8309 16.12L50.1297 19.3951L50.1417 19.3686L50.1534 19.3419L42.8309 16.12ZM27.3449 82.336L35.3398 82.6215L35.34 82.6149L27.3449 82.336ZM27.6119 104.497L19.617 104.783L35.5125 105.754L27.6119 104.497ZM34.2869 69.52L42.0789 71.3321L42.0801 71.3271L34.2869 69.52ZM55.1129 17.188L61.4994 22.0059L61.5361 21.9573L61.572 21.9081L55.1129 17.188ZM76.8112 9.57742C80.9077 8.8459 86.9535 11.2144 90.841 15.1018L102.155 3.78814C95.8962 -2.47038 84.8541 -8.11193 73.9985 -6.17342L76.8112 9.57742ZM90.841 15.1018C95.9071 20.1679 98.2906 28.2515 98.1112 37.9665C97.9338 47.5799 95.2357 57.5102 91.7221 64.6544L106.08 71.7156C110.576 62.5728 113.885 50.3421 114.109 38.2618C114.33 26.2829 111.507 13.1401 102.155 3.78814L90.841 15.1018ZM91.6669 64.7689C87.4758 73.6443 82.4253 81.0365 75.5605 87.4278L86.4632 99.1381C95.0844 91.1115 101.248 81.9497 106.135 71.601L91.6669 64.7689ZM75.6061 87.3858C72.7321 90.0203 69.7377 92.3041 66.6298 94.08L74.568 107.972C78.9361 105.476 82.8837 102.42 86.4177 99.1802L75.6061 87.3858ZM69.2837 108.917C69.6999 108.987 70.1993 109.105 70.9491 109.301C71.5633 109.461 72.6093 109.747 73.569 109.939L76.7068 94.2493C76.3314 94.1743 75.909 94.0594 74.9879 93.8191C74.2024 93.6142 73.0998 93.3325 71.9141 93.1348L69.2837 108.917ZM72.7517 109.73C78.8911 111.648 83.5612 116.023 86.1833 122.276L100.938 116.088C96.6185 105.787 88.4727 97.8796 77.5241 94.4582L72.7517 109.73ZM86.1521 122.2C90.5977 133.112 86.966 147.245 79.0996 157.972L92.0021 167.434C101.758 154.131 108.272 134.088 100.97 116.164L86.1521 122.2ZM78.9782 158.142C70.8577 169.845 57.7835 176.012 47.2279 171.182L40.5699 185.73C61.5203 195.318 82.0881 181.727 92.1236 167.264L78.9782 158.142ZM47.282 171.207C45.7454 170.489 45.0923 169.981 44.756 169.636C44.494 169.367 44.1431 168.917 43.7917 167.793L28.52 172.565C29.5037 175.713 31.0218 178.467 33.2963 180.802C35.4965 183.06 38.0474 184.554 40.5158 185.705L47.282 171.207ZM43.7453 167.649C43.2633 166.203 43.0544 164.64 42.7812 161.907L26.8606 163.499C27.1213 166.106 27.4465 169.349 28.5664 172.709L43.7453 167.649ZM42.7753 161.851C42.1624 156.13 43.3249 150.81 45.7586 144.482L30.8251 138.738C27.9189 146.294 25.8773 154.324 26.8664 163.555L42.7753 161.851ZM45.7418 144.525C50.268 132.958 56.7678 125.555 65.978 125.033L65.0738 109.059C45.9819 110.139 35.9277 125.698 30.8419 138.695L45.7418 144.525ZM65.9956 125.032C65.4773 125.063 64.0577 124.95 62.6873 123.716C61.3395 122.502 60.7988 120.865 60.8323 119.459C60.903 116.487 63.2464 114.78 65.0269 114.669L66.0249 130.637C72.0774 130.259 76.6902 125.615 76.8277 119.84C76.8946 117.032 75.8365 114.026 73.3957 111.828C70.9323 109.609 67.844 108.896 65.0561 109.06L65.9956 125.032ZM65.2184 114.659C54.1723 115.084 46.8545 123.382 42.9708 129.656L56.575 138.078C59.6332 133.138 62.9955 130.756 65.8333 130.647L65.2184 114.659ZM42.8855 129.797C39.2943 135.875 34.7387 145.341 35.1043 154.479L51.0915 153.839C50.923 149.627 53.3095 143.607 56.6603 137.937L42.8855 129.797ZM35.0979 154.159C35.0979 158.102 36.023 162.503 38.8987 166.08C41.9835 169.917 46.4823 171.771 51.3749 171.771V155.771C50.9311 155.771 50.8469 155.694 50.9734 155.751C51.1205 155.816 51.2741 155.937 51.3688 156.055C51.4441 156.149 51.3761 156.108 51.2854 155.796C51.1926 155.476 51.0979 154.941 51.0979 154.159H35.0979ZM51.3749 171.771C56.1034 171.771 59.6714 169.282 61.733 167.527C63.828 165.744 65.7357 163.482 66.6662 162.448L54.7735 151.744C54.025 152.576 53.5635 153.117 52.9069 153.824C52.3134 154.464 51.8102 154.962 51.3631 155.342C50.2873 156.258 50.3844 155.771 51.3749 155.771V171.771ZM67.0038 162.047C74.5334 152.49 81.2396 139.522 79.8995 125.116L63.9683 126.598C64.7642 135.154 60.7904 144.08 54.4359 152.145L67.0038 162.047ZM79.9228 125.437C79.5841 119.002 77.5766 112.802 74.7322 107.429L60.5916 114.915C62.5531 118.62 63.7496 122.566 63.9449 126.277L79.9228 125.437ZM74.8173 107.594C74.3515 106.663 73.6733 105.381 72.8561 104.109C72.1333 102.985 70.8991 101.221 69.1884 99.852L59.1933 112.346C58.9347 112.139 58.8672 112.029 58.9749 112.162C59.0641 112.271 59.2079 112.467 59.3972 112.761C59.7814 113.359 60.1712 114.079 60.5065 114.75L74.8173 107.594ZM67.7686 98.9436C64.1261 97.1223 59.8458 97.298 58.3169 97.298V113.298C59.4695 113.298 60.1258 113.305 60.6581 113.358C61.182 113.411 61.0357 113.466 60.6132 113.254L67.7686 98.9436ZM56.7479 97.4534C55.6475 97.6734 54.6163 97.9892 54.0156 98.1694C53.2813 98.3897 52.9776 98.4744 52.743 98.5213L55.8808 114.211C56.9812 113.991 58.0125 113.675 58.6132 113.495C59.3475 113.274 59.6512 113.19 59.8858 113.143L56.7479 97.4534ZM51.7821 98.7765C51.6766 98.8117 51.5568 98.8388 51.4494 98.8515C51.3402 98.8645 51.3112 98.8548 51.3659 98.8616C51.4224 98.8687 51.6242 98.9011 51.9115 99.0388C52.2171 99.1852 52.5596 99.4237 52.8565 99.763L40.8153 110.299C45.8645 116.07 53.2667 115.147 56.8417 113.955L51.7821 98.7765ZM52.9099 99.8247C53.4049 100.402 53.8907 101.455 53.7641 102.764C53.6415 104.031 53.0153 104.855 52.5762 105.231L42.1635 93.0829C39.8555 95.0613 38.1612 97.8878 37.8385 101.223C37.5115 104.602 38.6649 107.791 40.7618 110.237L52.9099 99.8247ZM52.2476 105.498C54.9447 103.423 56.6985 101.104 57.9698 99.3089C59.3663 97.3373 59.9885 96.3323 61.0101 95.2178L49.2156 84.4062C47.3003 86.4957 45.7864 88.8282 44.9134 90.0606C43.9153 91.4698 43.266 92.2207 42.4922 92.816L52.2476 105.498ZM61.0101 95.2178C62.3632 93.7417 63.7519 92.3543 65.3372 90.7338C66.8584 89.1788 68.517 87.4517 70.0696 85.5885L57.7781 75.3455C56.6608 76.6863 55.3824 78.0297 53.8998 79.5451C52.4813 80.9952 50.7996 82.6782 49.2156 84.4062L61.0101 95.2178ZM69.9296 85.752C76.3327 78.4758 81.5485 70.3523 85.5913 61.6891L71.0924 54.9229C67.6592 62.2797 63.2631 69.1082 57.9182 75.182L69.9296 85.752ZM85.695 61.4573C89.1647 53.3614 91.4736 45.2657 92.908 36.6592L77.1257 34.0288C75.8901 41.4423 73.927 48.2986 70.9887 55.1546L85.695 61.4573ZM92.8831 36.8007C93.4638 33.665 94.6128 28.5996 95.0243 23.7365C95.4394 18.8302 95.2839 12.6864 92.3859 7.09746L78.1818 14.4625C79.0219 16.0826 79.4003 18.6162 79.0812 22.3875C78.7585 26.2019 77.9049 29.814 77.1506 33.8873L92.8831 36.8007ZM92.4004 7.12556C90.0606 2.56898 86.1246 -0.438555 81.1418 -0.974678C76.8459 -1.4369 72.9397 0.0825831 70.1858 1.54428C64.5874 4.51571 59.6072 9.49786 57.2441 12.3335L69.5356 22.5765C71.1776 20.6061 74.6078 17.3113 77.687 15.6769C79.2718 14.8358 79.7712 14.9702 79.4302 14.9335C79.1333 14.9016 78.7129 14.771 78.3396 14.4989C77.9962 14.2487 77.9952 14.0992 78.1673 14.4344L92.4004 7.12556ZM57.2441 12.3335C51.2676 19.5053 46.8813 27.4609 43.4487 35.7562L58.233 41.8738C61.2085 34.6831 64.8321 28.2207 69.5357 22.5765L57.2441 12.3335ZM43.4487 35.7562C36.7108 52.0396 33.1055 69.3379 29.6666 85.4745L45.3152 88.8095C48.8182 72.3721 52.155 56.5624 58.233 41.8738L43.4487 35.7562ZM29.6417 85.5959C26.1082 103.535 23.6696 121.706 22.0468 139.828L37.983 141.256C39.5641 123.6 41.9316 105.993 45.3401 88.688L29.6417 85.5959ZM22.0425 141.206C22.3414 144.793 22.9342 148.322 23.4587 151.469L39.241 148.839C38.6976 145.578 38.2224 142.699 37.9872 139.878L22.0425 141.206ZM23.3655 150.653C23.327 150.038 23.4146 149.229 23.7862 148.373C24.155 147.524 24.692 146.884 25.2121 146.449C26.1536 145.66 26.927 145.6 26.9493 145.598C27.0467 145.588 27.1058 145.589 27.2511 145.637C27.289 145.649 28.2337 145.941 29.0927 147.168L15.985 156.344C17.7785 158.906 20.3252 160.199 22.2322 160.829C24.2465 161.495 26.4415 161.729 28.5414 161.519C30.5662 161.316 33.2087 160.622 35.4852 158.715C38.0655 156.554 39.5626 153.308 39.3343 149.655L23.3655 150.653ZM28.7858 146.758C28.2979 146.149 27.8315 145.32 26.9937 143.679C26.2684 142.258 25.1788 140.049 23.6688 137.973L10.729 147.383C11.355 148.244 11.8674 149.239 12.744 150.955C13.5082 152.452 14.6438 154.693 16.2919 156.754L28.7858 146.758ZM23.2195 137.41C21.8019 135.79 20.5121 133.878 19.3861 131.851L5.39962 139.621C6.94367 142.4 8.85782 145.294 11.1783 147.946L23.2195 137.41ZM18.9953 131.219C16.4569 127.509 14.8419 122.162 13.5189 116.341L-2.08319 119.887C-0.736196 125.814 1.38684 133.817 5.79042 140.253L18.9953 131.219ZM13.436 116.009C10.452 105.068 9.17887 93.5099 9.17887 82.069H-6.82113C-6.82113 94.6581 -5.42423 107.664 -2.00024 120.219L13.436 116.009ZM9.17841 81.983C8.92314 58.2431 13.5176 34.7318 22.4727 12.7276L7.65302 6.69635C-2.0818 30.6162 -7.0994 56.2329 -6.82066 82.155L9.17841 81.983ZM22.3854 12.9339C22.8252 11.9344 23.7576 10.9864 25.4313 10.3545C27.1658 9.69962 29.267 9.5788 31.0849 10.0151L34.8189 -5.54311C25.8022 -7.70709 12.7578 -4.91315 7.74036 6.49008L22.3854 12.9339ZM31.1789 10.0371C31.7808 10.1738 32.5497 10.4656 33.3269 10.9233C34.1039 11.3809 34.7099 11.8985 35.1041 12.3615C35.4996 12.8261 35.5451 13.0684 35.5363 13.028C35.5067 12.8922 35.558 12.7852 35.5084 12.8981L50.1534 19.3419C53.1894 12.4419 50.7796 6.09196 47.287 1.98953C43.9771 -1.89822 39.209 -4.54595 34.7248 -5.56507L31.1789 10.0371ZM35.532 12.8449C25.7741 34.5909 20.1877 58.0345 19.3497 82.0571L35.34 82.6149C36.104 60.7135 41.1976 39.301 50.1297 19.3951L35.532 12.8449ZM19.35 82.0505C19.071 89.8613 19.3519 97.3595 19.617 104.783L35.6068 104.211C35.3379 96.6825 35.0847 89.7627 35.3398 82.6215L19.35 82.0505ZM35.5125 105.754C37.3643 94.1143 39.4664 82.5659 42.0789 71.3321L26.4948 67.7079C23.7673 79.4361 21.5975 91.3837 19.7112 103.24L35.5125 105.754ZM42.0801 71.3271C46.3584 52.8769 51.1481 35.7274 61.4994 22.0059L48.7263 12.3701C36.1157 29.0865 30.7593 49.3171 26.4937 67.7129L42.0801 71.3271ZM61.572 21.9081C66.5363 15.1148 71.3348 10.5732 76.836 9.57296L73.9738 -6.16896C61.853 -3.96518 53.8354 5.37715 48.6537 12.4679L61.572 21.9081Z" fill="#3C6255" mask="url(#path-1-outside-1_206_2)"/>
</svg>
